<svg xmlns="http://www.w3.org/2000/svg" viewBox="0 0 64 64" width="64" height="64">
  <defs>
    <linearGradient id="halleyTile" x1="0" y1="0" x2="1" y2="1">
      <stop offset="0%" stop-color="#2bf5b0"></stop>
      <stop offset="100%" stop-color="#16c8e8"></stop>
    </linearGradient>
  </defs>
  
  <rect x="0" y="0" width="64" height="64" rx="16" fill="url(#halleyTile)"></rect>
  
  <g transform="translate(8 8) scale(2)" fill="#04130d">
    
    <path d="M12.5 11.5 C 8 14, 4.5 17.5, 2.2 21.8 C 7 19.5, 11 16.5, 14.5 13 Z"></path>
    <path d="M13 12 C 9.5 14.2, 6.5 17, 4.4 20.6 C 8 18.4, 11 16, 13.8 13.2 Z" opacity="0.55"></path>
    
    <path d="M13.2 4.2 L16.8 3.8 L19.6 6 L20.4 9.4 L18.6 12.6 L14.8 13.4 L11.8 11.4 L11.4 7.2 Z"></path>
    <path d="M13.2 4.2 L16.8 3.8 L19.6 6 L15.5 7 Z" opacity="0.6"></path>
    
    <circle cx="15" cy="8.4" r="1.3" fill="#2bf5b0"></circle>
    <circle cx="17.6" cy="9.8" r="0.85" fill="#2bf5b0" opacity="0.8"></circle>
    <circle cx="13.4" cy="9.6" r="0.7" fill="#2bf5b0" opacity="0.7"></circle>
  </g>
</svg>